<?xml version="1.0" standalone="no"?>
<!DOCTYPE svg PUBLIC "-//W3C//DTD SVG 20010904//EN"
 "http://www.w3.org/TR/2001/REC-SVG-20010904/DTD/svg10.dtd">
<svg version="1.0" xmlns="http://www.w3.org/2000/svg"
 width="1024.000000pt" height="1024.000000pt" viewBox="100 100 824 824"
 preserveAspectRatio="xMidYMid meet">

<g transform="translate(0.000000,1024.000000) scale(0.100000,-0.100000)"
fill="#FFFFFF" stroke="none">
<path d="M4585 8050 l-28 -29 48 -58 c26 -32 62 -87 79 -123 28 -59 31 -74 31
-166 0 -95 -2 -104 -30 -150 -38 -61 -116 -110 -189 -119 -28 -3 -321 -5 -651
-3 -668 3 -643 1 -702 72 -103 125 -73 366 61 501 l44 43 -27 26 c-15 14 -31
26 -36 26 -19 0 -159 -116 -216 -179 -159 -175 -196 -431 -91 -625 33 -60 110
-147 158 -177 l34 -21 -20 -32 c-30 -49 -66 -152 -80 -231 -12 -64 -18 -77
-80 -150 -37 -44 -109 -125 -160 -180 -51 -55 -99 -114 -106 -132 -9 -21 -14
-72 -14 -148 0 -127 7 -150 60 -200 l31 -30 202 -5 c184 -5 206 -7 248 -28 98
-48 182 -148 225 -268 34 -91 44 -222 44 -546 0 -467 21 -653 96 -869 53 -152
103 -251 189 -372 42 -60 83 -123 90 -140 7 -18 39 -131 70 -252 31 -121 72
-261 91 -311 l34 -92 0 -481 0 -481 193 2 192 3 5 475 c3 261 9 482 13 491 10
20 50 39 83 39 15 0 38 -12 55 -29 l29 -29 0 -471 c0 -258 3 -471 8 -473 4 -2
91 -2 195 0 l187 3 0 470 c0 334 3 477 11 492 7 12 27 39 45 60 l34 37 0 713
0 712 179 180 c99 99 188 181 198 183 12 2 72 -52 178 -158 l160 -160 373 0
373 0 97 -93 97 -93 30 15 c56 28 114 26 175 -6 79 -42 113 -94 118 -181 3
-56 0 -74 -20 -112 -67 -125 -237 -147 -343 -45 -43 42 -65 91 -65 145 0 18
-22 47 -78 103 l-77 77 -387 0 -386 0 -121 128 -121 127 -90 -91 -90 -91 0
-437 c0 -240 3 -436 8 -436 4 0 30 15 57 33 186 124 534 287 613 287 36 0 91
-62 196 -220 49 -74 153 -227 230 -340 l141 -205 5 -550 5 -550 172 -3 171 -2
4 662 4 663 -44 83 c-24 46 -42 86 -39 88 2 3 36 -41 75 -98 38 -57 97 -137
131 -178 l61 -74 0 -573 0 -573 183 2 182 3 5 632 c3 347 8 634 11 638 8 8 88
-146 128 -247 47 -120 91 -205 127 -246 l32 -37 -5 90 c-5 74 -1 113 22 219
21 98 26 147 23 205 -5 91 -24 136 -113 275 -119 187 -109 132 -116 666 -7
498 -10 528 -65 692 -88 266 -284 502 -512 617 l-62 31 0 -375 c0 -314 -2
-381 -15 -405 -34 -67 -111 -81 -167 -31 -32 28 -33 32 -30 93 2 35 4 229 5
431 2 361 2 368 -18 372 -11 2 -42 9 -70 14 -93 20 -184 31 -442 56 -444 43
-485 58 -694 252 -53 49 -119 106 -148 126 l-51 37 0 -428 c0 -320 3 -431 12
-440 9 -9 116 -12 420 -12 l408 0 37 41 c20 22 50 48 67 56 45 24 141 21 191
-4 50 -26 68 -46 94 -103 52 -114 -2 -244 -118 -285 -87 -30 -156 -13 -225 56
l-49 49 -440 2 -441 3 -78 90 -78 90 -2 490 -3 489 -100 33 c-55 18 -110 32
-123 33 l-22 0 6 -547 6 -548 43 -37 c77 -68 97 -175 50 -268 -34 -67 -85
-100 -164 -107 -82 -8 -160 29 -202 95 -57 90 -51 175 16 250 l45 50 0 566 0
566 -125 0 -125 0 0 -724 0 -725 25 -69 c14 -39 41 -104 60 -146 l35 -77 0
-298 0 -297 30 -22 c46 -35 74 -97 75 -168 0 -122 -87 -206 -215 -205 -115 0
-200 78 -208 191 -6 80 11 121 68 173 l49 45 1 275 1 275 -63 123 -63 124 -5
620 -5 620 -117 -114 -118 -114 0 -579 0 -579 53 -52 c41 -40 56 -63 66 -100
19 -80 0 -146 -61 -204 -43 -41 -76 -53 -150 -53 -47 0 -71 6 -103 24 -126 74
-141 254 -30 343 l35 28 0 626 0 626 133 129 c73 71 168 162 210 203 l77 73 0
134 0 133 64 -30 c98 -46 167 -55 257 -35 69 15 192 75 257 125 l24 17 -79 52
c-166 109 -275 130 -433 82 -19 -5 -47 -10 -62 -10 l-28 0 0 94 0 94 228 5
c241 5 286 12 387 61 66 33 164 135 199 209 29 63 56 165 56 217 0 119 -63
270 -154 367 -48 52 -164 148 -212 176 -6 3 -24 -7 -39 -23z m-729 -1185 c-12
-32 -86 -134 -112 -154 -24 -19 -40 -21 -145 -21 -66 0 -119 3 -119 6 0 10
130 172 143 177 6 3 63 6 126 6 97 1 112 -1 107 -14z"/>
<path d="M6227 5302 c-22 -25 -21 -75 1 -95 28 -25 87 -22 106 5 22 32 20 61
-7 86 -29 27 -78 29 -100 4z"/>
<path d="M4665 5148 c-64 -56 -1 -152 74 -113 44 22 54 67 24 103 -29 34 -66
37 -98 10z"/>
<path d="M3755 4585 c-14 -13 -25 -33 -25 -45 0 -29 44 -70 75 -70 30 0 75 41
75 67 0 23 -9 35 -40 56 -34 23 -57 21 -85 -8z"/>
<path d="M6762 4344 c-32 -22 -30 -76 4 -103 15 -12 34 -21 44 -21 10 0 29 9
44 21 53 41 24 119 -44 119 -14 0 -36 -7 -48 -16z"/>
<path d="M4300 3940 c-42 -42 -10 -120 49 -120 43 0 74 30 73 71 -2 62 -78 93
-122 49z"/>
</g>
</svg>
